<svg id="Capa_1" enable-background="new 0 0 512 512" height="512" viewBox="0 0 512 512" width="512"
     xmlns="http://www.w3.org/2000/svg">
    <g>
        <g>
            <path fill="#929292"
                  d="m256 512-113.156-133.919h61.575v-70.5h-70.5v61.575l-133.919-113.156 133.919-113.156v61.575h70.5v-70.5h-61.575l113.156-133.919 113.157 133.919h-61.577v70.5h70.501v-61.575l133.919 113.156-133.919 113.156v-61.575h-70.501v70.5h61.577zm-47.828-103.592 47.828 56.604 47.828-56.604h-26.574v-131.154h131.155v26.574l56.602-47.828-56.603-47.828v26.574h-131.155v-131.154h26.574l-47.827-56.604-47.828 56.604h26.574v131.154h-131.154v-26.574l-56.604 47.828 56.604 47.828v-26.574h131.154v131.154z"/>
        </g>
    </g>
</svg>